<svg width="91" height="100" viewBox="0 0 91 100" fill="none" xmlns="http://www.w3.org/2000/svg">
<path d="M71.2738 39.0964C77.1426 35.5339 84.7865 37.4037 88.3448 43.2725C91.9072 49.1412 90.0375 56.7851 84.1687 60.3434C84.0122 60.4381 83.8557 60.5288 83.6992 60.6152L18.9531 97.8995C13.0843 101.462 5.44046 99.5922 1.878 93.7234C-1.68445 87.8546 0.185321 80.2108 6.05411 76.6484C6.21061 76.5536 6.36711 76.463 6.52361 76.3765L71.2738 39.0964Z" fill="#81C995"/>
<path d="M24.7519 12.5078C24.7807 5.65877 19.2496 0.0782799 12.4006 0.0494507C11.5193 0.0453323 10.6421 0.135938 9.77719 0.31715C3.9743 1.74213 -0.0823731 6.9808 -4.20748e-06 12.9608V87.0146L24.7271 87.4635L24.7519 12.5078Z" fill="#34A853"/>
<path d="M71.5539 60.6606C77.538 63.7618 84.9018 61.7767 88.5178 56.085C91.9937 50.2368 90.0704 42.6753 84.2222 39.1993C84.1769 39.1746 84.1357 39.1499 84.0904 39.1211L18.9119 1.7709C13.109 -1.7339 5.5599 0.127637 2.05098 5.93053C1.9645 6.07467 1.87801 6.22294 1.79564 6.3712C-1.64738 12.2647 0.33771 19.8385 6.23121 23.2857C6.27239 23.3104 6.31358 23.331 6.35476 23.3557L71.5539 60.6606Z" fill="#5BB974"/>
<path d="M83.6621 60.7472L24.7313 93.6659V65.3886L71.4921 39.3148C77.6904 35.88 85.503 38.1204 88.9378 44.3228C89.2591 44.8994 89.5309 45.5007 89.7574 46.1184C91.5119 51.8225 88.9502 57.9713 83.6621 60.7472Z" fill="#81C995"/>
<path d="M12.3883 99.996C19.2165 99.996 24.7519 94.4606 24.7519 87.6324C24.7519 80.8042 19.2165 75.2688 12.3883 75.2688C5.56006 75.2688 0.024704 80.8042 0.024704 87.6324C0.024704 94.4606 5.56006 99.996 12.3883 99.996Z" fill="#1E8E3E"/>
</svg>
