<svg width="113" height="100" viewBox="0 0 113 100" fill="none" xmlns="http://www.w3.org/2000/svg">
<path d="M3.23275 72.4744L40.276 9.05688C44.9814 11.827 68.7086 24.9584 72.5407 27.4554L35.4975 90.8767C31.4461 96.2285 -1.89975 80.5963 3.23275 72.4705V72.4744Z" fill="#FBBC04"/>
<path d="M109.664 72.4729L72.6209 9.05929C67.4422 0.441008 56.2885 -2.69082 47.1277 2.39936C37.9669 7.48953 35.1775 18.4548 40.3562 27.4578L77.3994 90.8791C82.5781 99.4936 93.7319 102.625 102.893 97.5352C111.653 92.445 114.843 81.0912 109.664 72.4806V72.4729Z" fill="#4285F4"/>
<path d="M19.2612 99.9865C29.5308 99.9865 37.8559 91.8681 37.8559 81.8535C37.8559 71.8389 29.5308 63.7205 19.2612 63.7205C8.99164 63.7205 0.666504 71.8389 0.666504 81.8535C0.666504 91.8681 8.99164 99.9865 19.2612 99.9865Z" fill="#34A853"/>
</svg>
