<svg width="261" height="64" viewBox="0 0 261 64" fill="none" xmlns="http://www.w3.org/2000/svg">
<g clip-path="url(#clip0_2_2063)">
<path d="M256.553 59.4556C256.713 59.4572 256.871 59.426 257.018 59.3639C257.165 59.3017 257.298 59.2101 257.408 59.0945C257.518 58.979 257.603 58.8421 257.658 58.6922C257.713 58.5424 257.737 58.3828 257.728 58.2234C257.728 57.3495 257.201 56.932 256.119 56.932H254.371V61.5073H255.029V59.5129H255.836L255.855 59.5372L257.108 61.5073H257.811L256.463 59.4682L256.553 59.4556ZM255.793 58.9973H255.031V57.4505H255.997C256.496 57.4505 257.065 57.5321 257.065 58.1856C257.065 58.9371 256.489 58.9973 255.789 58.9973M0.46315 9.42882H10.1661V44.7724H28.1293V53.7268H0.46315V9.42882ZM32.419 23.6915H41.7404V53.7103H32.419V23.6915ZM37.0797 8.76758C38.1492 8.76777 39.1945 9.08507 40.0837 9.67936C40.9728 10.2736 41.6657 11.1182 42.0748 12.1063C42.4839 13.0944 42.5909 14.1816 42.3821 15.2305C42.1734 16.2793 41.6583 17.2428 40.902 17.9989C40.1457 18.755 39.1822 19.2699 38.1333 19.4785C37.0844 19.6871 35.9972 19.5799 35.0092 19.1706C34.0212 18.7613 33.1768 18.0683 32.5826 17.179C31.9885 16.2898 31.6714 15.2444 31.6714 14.175C31.6714 13.4648 31.8113 12.7615 32.0831 12.1054C32.3549 11.4493 32.7533 10.8532 33.2555 10.351C33.7577 9.84889 34.354 9.4506 35.0101 9.17891C35.6663 8.90722 36.3695 8.76745 37.0797 8.76758ZM80.733 9.42202H90.0544V35.8958L100.619 23.6779H112.047L99.8127 37.5756L111.79 53.7229H100.074L90.1787 38.8844H90.0564V53.721H80.7349L80.733 9.42202ZM46.909 23.6944H55.8604V27.7968H55.9876C56.8817 26.265 58.1751 25.0048 59.7296 24.1507C61.2841 23.2967 63.0414 22.8809 64.8138 22.9478C74.2663 22.9478 76.0063 29.1669 76.0063 37.2464V53.7084H66.6849V39.1136C66.6849 35.6297 66.6208 31.1516 61.83 31.1516C56.9848 31.1516 56.2372 34.9452 56.2372 38.8602V53.7045H46.9158L46.909 23.6944Z" fill="#0A66C2"/>
<path d="M131.677 35.2093C131.695 34.453 131.559 33.701 131.278 32.9988C130.997 32.2967 130.576 31.6589 130.041 31.1242C129.505 30.5895 128.867 30.1689 128.165 29.8881C127.463 29.6072 126.711 29.4719 125.954 29.4902C124.326 29.3889 122.722 29.9316 121.49 31.0014C120.258 32.0713 119.496 33.5825 119.367 35.2093H131.677ZM139.573 48.5117C138.024 50.39 136.077 51.9004 133.872 52.9334C131.668 53.9663 129.261 54.4961 126.826 54.4842C117.505 54.4842 110.042 48.2621 110.042 38.6271C110.042 28.9921 117.504 22.773 126.826 22.773C135.539 22.773 141.003 28.9872 141.003 38.6271V41.5498H119.367C119.637 43.2073 120.496 44.7116 121.787 45.7856C123.078 46.8596 124.713 47.4308 126.392 47.3941C127.719 47.3859 129.023 47.0459 130.185 46.4052C131.346 45.7645 132.33 44.8434 133.044 43.7257L139.573 48.5117ZM160.432 30.9476C155.771 30.9476 152.975 34.0596 152.975 38.5941C152.975 43.1286 155.77 46.2435 160.432 46.2435C165.094 46.2435 167.896 43.1363 167.896 38.5941C167.896 34.0519 165.098 30.9476 160.432 30.9476ZM176.477 53.7045H167.896V49.7235H167.769C166.692 51.1715 165.296 52.3514 163.688 53.1713C162.081 53.9911 160.306 54.4288 158.502 54.4502C149.545 54.4502 143.646 47.9864 143.646 38.8456C143.646 30.4505 148.867 22.7419 157.449 22.7419C161.307 22.7419 164.91 23.7974 167.024 26.7229H167.146V9.4191H176.476L176.477 53.7045ZM239.406 53.722H230.084V39.1243C230.084 35.6433 230.022 31.1622 225.236 31.1622C220.381 31.1622 219.638 34.9549 219.638 38.8708V53.721H210.317V23.7022H219.265V27.8046H219.391C220.286 26.2734 221.58 25.0138 223.135 24.1598C224.69 23.3059 226.447 22.8897 228.22 22.9555C237.667 22.9555 239.409 29.1698 239.409 37.2541L239.406 53.722ZM199.799 19.5988C198.729 19.599 197.684 19.282 196.794 18.6877C195.904 18.0935 195.211 17.2488 194.801 16.2605C194.392 15.2721 194.284 14.1845 194.493 13.1352C194.701 12.0858 195.216 11.1219 195.973 10.3652C196.729 9.60859 197.693 9.09323 198.742 8.88432C199.791 8.67541 200.879 8.78234 201.867 9.19158C202.856 9.60082 203.701 10.294 204.295 11.1834C204.89 12.0729 205.207 13.1187 205.208 14.1885C205.208 14.8989 205.068 15.6023 204.796 16.2587C204.525 16.915 204.126 17.5114 203.624 18.0138C203.122 18.5162 202.526 18.9147 201.869 19.1867C201.213 19.4587 200.51 19.5987 199.799 19.5988ZM204.46 53.722H195.129V23.7022H204.46V53.722ZM244.053 0.123913H190.445C189.228 0.110182 188.056 0.580074 187.185 1.43033C186.315 2.28059 185.817 3.44165 185.803 4.65838V58.4885C185.817 59.7058 186.314 60.8677 187.184 61.7188C188.055 62.57 189.228 63.0408 190.445 63.0278H244.053C245.272 63.0431 246.448 62.5736 247.322 61.7225C248.196 60.8714 248.696 59.7082 248.713 58.4885V4.6545C248.696 3.43536 248.195 2.27298 247.321 1.42274C246.447 0.5725 245.272 0.10395 244.053 0.120029M255.872 54.8939C254.738 54.9048 253.655 55.3644 252.858 56.1721C252.062 56.9799 251.618 58.07 251.624 59.2041C251.629 60.3383 252.084 61.4241 252.888 62.2241C253.691 63.0242 254.779 63.4733 255.914 63.4733C257.048 63.4733 258.136 63.0242 258.94 62.2241C259.744 61.4241 260.198 60.3383 260.203 59.2041C260.209 58.07 259.765 56.9799 258.969 56.1721C258.173 55.3644 257.089 54.9048 255.955 54.8939H255.872ZM255.872 62.9822C255.128 62.9946 254.398 62.7861 253.772 62.3831C253.147 61.9801 252.655 61.4008 252.359 60.7183C252.063 60.0358 251.976 59.2808 252.109 58.5488C252.242 57.8168 252.589 57.1407 253.106 56.6059C253.623 56.0712 254.287 55.7018 255.015 55.5446C255.742 55.3873 256.499 55.4492 257.191 55.7224C257.883 55.9956 258.479 56.4679 258.902 57.0795C259.326 57.6911 259.558 58.4146 259.571 59.1585V59.2216C259.592 60.1974 259.224 61.1415 258.549 61.8464C257.874 62.5513 256.946 62.9591 255.97 62.9802H255.873" fill="#0A66C2"/>
</g>
<defs>
<clipPath id="clip0_2_2063">
<rect width="260" height="63.5931" fill="white" transform="translate(0.333313)"/>
</clipPath>
</defs>
</svg>
