<svg width="90" height="100" viewBox="0 0 90 100" fill="none" xmlns="http://www.w3.org/2000/svg">
<path d="M4.02501 85.5753L4.35304 86.5014C4.31104 86.3954 4.19103 86.0714 4.02501 85.5753ZM17.0064 64.587C17.5825 59.6105 19.5387 56.8242 23.2251 53.9679C28.4997 50.0994 35.0884 52.2877 35.0884 52.2877V39.3063C36.6902 39.2636 38.2926 39.3626 39.8769 39.6023V56.3081C39.8769 56.3081 33.2902 54.1199 28.0156 57.9903C24.3312 60.8446 22.371 63.6329 21.797 68.6095C21.7789 71.3118 22.265 74.8442 24.5032 77.8985C23.9499 77.6025 23.3858 77.2651 22.8111 76.8864C17.8805 73.432 16.9824 68.2494 17.0064 64.587ZM67.0819 15.3036C63.4535 11.1552 62.0813 6.96674 61.5853 4.02441H66.1498C66.1498 4.02441 65.2397 11.7393 71.8724 19.3261L71.9644 19.4281C70.1768 18.2549 68.5374 16.87 67.0819 15.3036ZM89.0703 27.0649V43.4347C89.0703 43.4347 83.2457 43.1967 78.9352 42.0526C72.9165 40.4524 69.0481 37.9981 69.0481 37.9981C69.0481 37.9981 66.3758 36.2479 66.1598 36.1259V69.9296C66.1598 71.8118 65.6657 76.5123 64.1596 80.4328C62.1934 85.5613 59.159 88.9277 58.601 89.6158C58.601 89.6158 54.9106 94.1663 48.3999 97.2306C42.5312 99.9949 37.3787 99.9249 35.8385 99.9949C35.8385 99.9949 26.9315 100.363 18.9166 94.9283C17.1835 93.7305 15.5656 92.3738 14.0841 90.8759L14.1241 90.9059C22.141 96.3405 31.046 95.9725 31.046 95.9725C32.5881 95.9024 37.7407 95.9725 43.6073 93.2081C50.112 90.1438 53.8084 85.5933 53.8084 85.5933C54.3605 84.9052 57.4088 81.5389 59.3671 76.4083C60.8692 72.4899 61.3673 67.7874 61.3673 65.9052V32.1055C61.5833 32.2295 64.2536 33.9797 64.2536 33.9797C64.2536 33.9797 68.124 36.436 74.1427 38.0341C78.4551 39.1783 84.2778 39.4163 84.2778 39.4163V26.5889C86.27 27.0549 87.9682 27.1809 89.0703 27.0649Z" fill="#EE1D52"/>
<path d="M84.279 26.5889V39.4123C84.279 39.4123 78.4564 39.1742 74.1439 38.0301C68.1253 36.4299 64.2548 33.9757 64.2548 33.9757C64.2548 33.9757 61.5846 32.2255 61.3685 32.1015V65.9092C61.3685 67.7914 60.8745 72.4939 59.3683 76.4123C57.4021 81.5429 54.3678 84.9092 53.8097 85.5973C53.8097 85.5973 50.1173 90.1478 43.6086 93.2121C37.742 95.9764 32.5894 95.9064 31.0472 95.9764C31.0472 95.9764 22.1422 96.3445 14.1254 90.9099L14.0854 90.8799C13.239 90.0248 12.4422 89.1219 11.6991 88.1756C9.14083 84.9212 7.57266 81.0728 7.17861 79.9747C7.17793 79.9701 7.17793 79.9653 7.17861 79.9607C6.54455 78.0525 5.2124 73.47 5.39442 69.0315C5.71646 61.2006 8.35674 56.3941 9.05482 55.19C10.9036 51.9064 13.3082 48.9685 16.1616 46.507C18.6795 44.3831 21.5335 42.6931 24.6065 41.5065C27.9285 40.1133 31.4858 39.3665 35.0877 39.3063V52.2877C35.0877 52.2877 28.4989 50.1074 23.2264 53.9679C19.54 56.8242 17.5838 59.6105 17.0077 64.587C16.9837 68.2494 17.8818 73.432 22.8083 76.8884C23.383 77.2684 23.9471 77.6058 24.5005 77.9005C25.3612 79.0678 26.4087 80.0849 27.6008 80.9108C32.4134 84.0891 36.4458 84.3112 41.6024 82.2469C45.0407 80.8668 47.629 77.7565 48.8292 74.3101C49.5832 72.1579 49.5732 69.9916 49.5732 67.7514V4.02441H61.5746C62.0706 6.96674 63.4428 11.1552 67.0712 15.3036C68.5267 16.87 70.1661 18.2549 71.9537 19.4281C72.4817 19.9982 75.182 22.8165 78.6484 24.5467C80.4408 25.441 82.3301 26.1262 84.279 26.5889Z" fill="black"/>
<path d="M2.40213 75.9883V75.9983L2.69816 76.8404C2.66416 76.7424 2.55415 76.4443 2.40213 75.9883Z" fill="#69C9D0"/>
<path d="M24.6063 41.5066C21.5333 42.6932 18.6793 44.3831 16.1614 46.5071C13.3071 48.9741 10.9031 51.9182 9.05663 55.2081C8.35855 56.4082 5.71826 61.2187 5.39623 69.0496C5.21421 73.4881 6.54635 78.0706 7.18042 79.9788C7.17974 79.9834 7.17974 79.9881 7.18042 79.9928C7.58047 81.0809 9.14264 84.9293 11.7009 88.1937C12.444 89.1399 13.2408 90.0429 14.0872 90.898C11.3753 89.0224 8.95667 86.7548 6.91039 84.1692C4.37412 80.9429 2.80995 77.1345 2.4019 76.0104C2.40142 76.0024 2.40142 75.9943 2.4019 75.9864V75.9724C1.76583 74.0661 0.429688 69.4816 0.615708 65.0372C0.937743 57.2063 3.57803 52.3998 4.27611 51.1956C6.12205 47.9054 8.52613 44.9612 11.3809 42.4947C13.8983 40.37 16.7524 38.6799 19.8258 37.4941C21.7428 36.6988 23.7399 36.112 25.7825 35.744C28.8607 35.2066 32.0046 35.16 35.0975 35.6059V39.3063C31.4923 39.3653 27.9315 40.1121 24.6063 41.5066Z" fill="#69C9D0"/>
<path d="M61.5844 4.02444H49.5831V67.7534C49.5831 69.9936 49.5831 72.1539 48.839 74.3121C47.6269 77.7565 45.0486 80.8668 41.6122 82.247C36.4537 84.3192 32.4212 84.0892 27.6107 80.9108C26.4165 80.0886 25.3663 79.0749 24.5024 77.9105C28.6008 80.0967 32.2692 80.0587 36.8137 78.2345C40.2481 76.8544 42.8304 73.744 44.0385 70.2977C44.7946 68.1454 44.7846 65.9792 44.7846 63.741V0H61.3564C61.3564 0 61.1704 1.58417 61.5844 4.02444ZM84.2789 23.0425V26.5889C82.3334 26.1255 80.4475 25.4403 78.6583 24.5467C75.1919 22.8165 72.4916 19.9982 71.9635 19.4281C72.5763 19.8304 73.2121 20.1964 73.8678 20.5242C78.0822 22.6285 82.2327 23.2565 84.2789 23.0425Z" fill="#69C9D0"/>
</svg>
