<svg width="107" height="100" viewBox="0 0 107 100" fill="none" xmlns="http://www.w3.org/2000/svg">
<path d="M0.971677 0.239655C0.928104 0.305008 4.45752 5.11983 8.79303 10.915C13.1285 16.7102 22.3442 29.0414 29.2723 38.3007L41.8649 55.1416L41.0588 56.0566C40.6013 56.5577 31.3421 66.5577 20.4924 78.2789C9.6427 90.0218 0.732026 99.695 0.710239 99.8039C0.666666 99.9129 2.56209 100 5.2854 99.9782L9.92593 99.9564L11.451 98.2789C12.3007 97.3638 20.1874 88.8453 28.9891 79.3246C37.7909 69.8039 45.2418 61.7429 45.5468 61.3943L46.0915 60.7625L50.4488 66.6013C52.8453 69.8039 59.4466 78.6492 65.1111 86.2309L75.4379 100H91.2331C104.37 100 107.007 99.9564 106.919 99.7168C106.854 99.5425 102.845 94.1394 98.0087 87.6688C93.1721 81.22 87.6384 73.8126 85.7211 71.2418C83.7821 68.671 78.0959 61.024 73.0414 54.2919C67.9869 47.5381 63.8475 41.9172 63.8475 41.8301C63.8475 41.6776 90.5577 12.6797 99.6427 2.98475L102.235 0.217865H97.4641L92.7146 0.239655L87.1591 6.25272C84.1089 9.56427 76.6362 17.6688 70.536 24.2266L59.4902 36.1656L46.0915 18.2571L32.671 0.326797L16.8758 0.217865C8.18301 0.152504 1.01525 0.174294 0.971677 0.239655ZM38.4009 19.5425C43.5643 26.4706 51.5381 37.1242 56.1133 43.2462C60.6885 49.3464 70.841 62.9412 78.6841 73.4205C86.5272 83.9216 93.0196 92.6144 93.1286 92.7669C93.2593 92.963 91.7124 93.0283 86.0697 93.0283H78.8584L64.5665 73.8998C31.5817 29.8257 14.9368 7.55991 14.7407 7.23312C14.61 7.03704 16.0915 6.97168 21.7778 6.97168H28.9891L38.4009 19.5425Z" fill="black"/>
</svg>
