<svg width="127" height="34" viewBox="0 0 127 34" fill="none" xmlns="http://www.w3.org/2000/svg">
<g clip-path="url(#clip0_2_2673)">
<path d="M29.4259 33.2647H38.3173L40.3464 27.6391L34.8516 19.127L29.4259 33.2647Z" fill="#0F5EBC"/>
<path d="M41.8754 0.735352L36.6301 14.4668C36.4651 16.1371 36.9243 17.8099 37.9197 19.1588C39.5917 21.3794 42.0441 21.6944 42.4666 21.7407L46.0717 11.7652L41.8754 0.735352Z" fill="#0F5EBC"/>
<path d="M49.6578 21.1816C49.7295 21.1881 49.8062 21.1881 49.8829 21.1881H49.6578V21.1816Z" fill="#7A839E"/>
<path d="M63.2376 33.2644L51.0456 0.735352H41.8753L49.6562 21.1878H43.0316C39.52 21.1878 36.6223 18.2162 36.6223 14.6879C36.6223 14.6159 36.6223 14.5388 36.6287 14.4668L34.3438 20.4446C32.7818 24.5438 36.2936 27.6221 40.6599 27.6324H40.8019C46.4464 27.6453 52.0985 27.6041 52.0985 27.6041V27.5964L54.2542 33.2541L63.2376 33.2644Z" fill="#1987F4"/>
<path d="M26.7203 9.90107C25.4115 7.19441 23.3851 4.90175 20.8648 3.27646C18.3636 1.60359 15.425 0.716362 12.4211 0.726651H0V1.17026C0 1.17026 0.280176 6.71862 6.3404 7.93761C6.8406 8.03791 7.6402 7.81801 8.24917 7.81674H8.41679C8.80827 7.81674 9.18436 7.79872 9.51699 7.78461H10.3409C13.6365 7.78461 16.1158 8.89169 17.7777 11.1046C19.0302 12.7775 19.6558 14.7371 19.6558 16.9834C19.6558 19.2298 19.0314 21.1984 17.7828 22.888C16.1363 25.1035 13.6569 26.2106 10.346 26.2093H8.6995L8.18777 26.1874L8.11358 33.2595H12.4237C14.1661 33.2582 15.897 32.9612 17.541 32.3787C20.7023 31.2639 23.2993 29.2657 25.3309 26.3842C27.3625 23.5026 28.3783 20.369 28.377 16.9834C28.3732 14.5262 27.8064 12.1024 26.7203 9.90107Z" fill="#1987F4"/>
<path d="M8.41679 25.633V7.81784C7.68627 7.81784 4.70667 8.03255 2.75826 6.10768C2.54845 5.90066 1.47892 4.86043 0.81622 3.50515C0.214929 2.28104 0 0.71875 0 0.71875V33.2606H7.67604V33.2683L12.0616 33.2606C14.5205 33.3506 16.8335 32.6113 16.8335 32.6113C8.39504 32.3669 8.41679 25.633 8.41679 25.633Z" fill="#0F5EBC"/>
<path d="M118.584 0.735352V1.44513C118.55 3.30316 118.235 8.47991 115.911 12.9199H106.441V0.735352H98.0268V33.2669H106.441V19.974H118.582V33.2644H126.999V0.735352H118.584Z" fill="#1987F4"/>
<path d="M126.992 0.735352H118.579C118.579 0.735352 119.347 17.5618 106.44 19.974H118.585C127.567 16.9998 126.992 0.735352 126.992 0.735352Z" fill="#0F5EBC"/>
<path d="M98.0268 26.7749V33.2645H106.441V19.9741C106.441 19.9741 99.4468 20.1374 98.0268 26.7749Z" fill="#0F5EBC"/>
<path d="M87.3207 31.6227C87.3618 31.5919 87.4024 31.5636 87.4485 31.5327L87.3207 31.6227Z" fill="#00B6BA"/>
<path d="M87.4426 31.5328C88.5697 30.7098 89.4818 29.6246 90.1 28.3696C89.4654 29.613 88.5559 30.6944 87.4426 31.5328Z" fill="#00ECFD"/>
<path d="M91.23 22.4004C90.7807 15.2306 84.9609 14.8217 80.995 12.7181C77.0291 10.6144 78.5644 7.59401 80.995 6.89964C83.426 6.20532 86.5566 9.06757 86.5566 9.06757L89.9248 2.49182C80.9531 -1.3451 71.3221 -1.71928 69.2469 8.41307C68.7649 10.7662 68.9439 12.6448 69.503 14.1427C72.095 17.8138 75.8266 19.0109 78.4479 19.3774C79.0083 19.4558 79.5175 19.4957 79.9551 19.5137C80.3391 19.4957 80.7624 19.4931 81.1962 19.5137C81.4251 19.5021 81.5516 19.488 81.5516 19.488C81.5298 19.5021 81.5043 19.515 81.4812 19.5291C82.8619 19.6165 84.3892 19.9316 85.7774 20.6954C86.4581 21.0695 87.4854 21.9195 88.2734 23.4162C90.2128 27.1014 87.4599 31.3729 87.2666 31.6635L87.3215 31.625L87.4494 31.5349C88.5626 30.6966 89.4722 29.6152 90.1067 28.3718C91.619 25.4092 91.23 22.4004 91.23 22.4004Z" fill="#1987F4"/>
<path d="M88.2746 23.4136C87.4866 21.9169 86.4593 21.067 85.7786 20.6927C84.3904 19.929 82.8631 19.6139 81.4824 19.5265C81.5055 19.5124 81.531 19.4995 81.5528 19.4854C81.5528 19.4854 81.425 19.4995 81.197 19.5111C80.7636 19.4931 80.3465 19.4956 79.9563 19.5111C79.5187 19.4931 79.0095 19.4532 78.4491 19.3748C75.8278 19.0083 72.0962 17.8112 69.5042 14.1401C69.5042 14.1401 70.9024 19.2064 78.5132 20.0884C80.344 20.6028 81.6195 21.9696 81.7561 23.4509C81.8844 24.756 81.0591 26.0225 80.1135 26.731C79.4584 27.1991 78.6872 27.4729 77.8849 27.5231C74.212 27.8767 70.4317 23.6656 69.9917 23.1641L66.6871 29.7759C67.2727 30.4587 71.0366 32.3064 73.9035 33.1923C75.9137 33.8121 78.014 34.0783 80.1135 33.9793C83.3338 33.7324 85.6303 32.8439 87.2691 31.6648C87.4594 31.3742 90.2127 27.0988 88.2746 23.4136Z" fill="#0F5EBC"/>
</g>
<defs>
<clipPath id="clip0_2_2673">
<rect width="127" height="34" fill="white"/>
</clipPath>
</defs>
</svg>
